PathFileType	4	(X/Y/Z)	C:\Users\u0145647\OneDrive - KU Leuven\KU Leuven\c3d2osim\CP4\T0\Data\Processed\ViconC3D_CP4_2\CP4_T0_cmj_T2_gapFilled.trc
DataRate	CameraRate	NumFrames	NumMarkers	Units	OrigDataRate	OrigDataStartFrame	OrigNumFrames
100.000000	100.000000	9	47	mm	100.000000	479	638
Frame#	Time	C7			T10			CLAV			STRN			LSHO			RSHO			RBAK			LASI			RASI			LPSI			RPSI			LLAT			RLAT			LF1			LF2			LF3			LTHI			LKNE			LMEK			RF1			RF2			RF3			RTHI			RKNE			RMEK			LT1			LT2			LT3			LTIB			LANK			LMM			RT1			RT2			RT3			RTIB			RANK			RMM			LHEE			LSTL			LLCA			LTOE			LCM5			RHEE			RSTL			RLCA			RTOE			RCM5
		X1	Y1	Z1	X2	Y2	Z2	X3	Y3	Z3	X4	Y4	Z4	X5	Y5	Z5	X6	Y6	Z6	X7	Y7	Z7	X8	Y8	Z8	X9	Y9	Z9	X10	Y10	Z10	X11	Y11	Z11	X12	Y12	Z12	X13	Y13	Z13	X14	Y14	Z14	X15	Y15	Z15	X16	Y16	Z16	X17	Y17	Z17	X18	Y18	Z18	X19	Y19	Z19	X20	Y20	Z20	X21	Y21	Z21	X22	Y22	Z22	X23	Y23	Z23	X24	Y24	Z24	X25	Y25	Z25	X26	Y26	Z26	X27	Y27	Z27	X28	Y28	Z28	X29	Y29	Z29	X30	Y30	Z30	X31	Y31	Z31	X32	Y32	Z32	X33	Y33	Z33	X34	Y34	Z34	X35	Y35	Z35	X36	Y36	Z36	X37	Y37	Z37	X38	Y38	Z38	X39	Y39	Z39	X40	Y40	Z40	X41	Y41	Z41	X42	Y42	Z42	X43	Y43	Z43	X44	Y44	Z44	X45	Y45	Z45	X46	Y46	Z46	X47	Y47	Z47

479	4.78	-136.75	1444	-302.86	-122.31	1188	-333.14	-146.85	1365.4	-184.94	-144.24	1214.1	-155.69	68.989	1400.5	-206.65	-335.62	1393.3	-269.52	-256.96	1358.1	-347.54	-64.708	931.1	-156.63	-262.09	928.65	-206	-90.608	965.36	-337.92	-160.93	969.74	-356.19	-2.5988	994.98	-205.93	-291.48	1004.5	-271.31	54.804	689.07	-181.56	47.868	731.71	-198.48	59.529	682.39	-215.31	115.21	619.22	-199.38	69.4	480.13	-177.97	NaN	NaN	NaN	-313.21	649.49	-272.64	-318.79	683.34	-253.63	-298.61	680.26	-312.56	-352.22	587.21	-272.36	-293.75	465.11	-226.94	NaN	NaN	NaN	118.6	319.11	-253.03	103.88	350.06	-202.01	106.23	362.55	-253.08	158.39	250.19	-204.83	138.01	87.729	-300.89	54.651	75.483	-266.59	-314.09	318.19	-268.17	-304.49	358.93	-238.18	-305.92	365.89	-289.63	-361	249.21	-268.19	-305.2	71.059	-292.91	-226.49	79.578	-254.11	86.242	58.591	-339.56	65.056	46.417	-271.18	139.43	58.226	-296.79	139.74	52.535	-170.75	179.39	53.016	-193.65	-250.69	62.167	-328.38	-232.04	43.302	-258.22	-306.84	45.867	-286.36	-320.55	45.622	-161.1	-362.61	33.163	-202.93
480	4.79	-138.16	1443.7	-302.92	-122.86	1188.1	-332.61	-148.19	1366	-184.58	-145.44	1214.7	-155	67.675	1401.3	-205.74	-337.18	1392.7	-269.29	-258.32	1357.6	-347.19	-65.555	931.25	-155.86	-262.54	928.7	-205.97	-90.678	965.82	-336.99	-160.91	970.18	-355.75	-3.2375	995.46	-204.56	-291.86	1004.5	-271.11	54.351	689.25	-181.21	47.399	731.86	-198.18	59.106	682.74	-214.91	114.8	619.55	-199.19	68.911	480.21	-178.52	NaN	NaN	NaN	-313.37	649.63	-273.26	-318.87	683.51	-254.02	-298.72	680.55	-313.03	-352.31	587.36	-273.31	-293.92	465.07	-227.77	NaN	NaN	NaN	118.34	319.22	-253.46	103.59	350.21	-202.48	105.9	362.66	-253.6	157.95	249.94	-204.95	137.97	87.805	-301.02	54.647	75.568	-266.78	-314.32	318.21	-268.8	-304.93	359.11	-238.95	-306.13	365.93	-290.27	-361.17	249.18	-268.69	-305.31	71.017	-292.96	-226.5	79.737	-254.33	86.25	58.52	-339.65	64.773	46.435	-271.61	139.41	58.218	-296.82	139.66	52.559	-170.8	179.33	53.049	-193.7	-250.72	62.127	-328.46	-232.08	43.383	-258.28	-306.85	45.805	-286.41	-320.59	45.593	-161.14	-362.64	33.091	-202.97
481	4.8	-139.52	1443.5	-303.07	-123.38	1188.2	-332.05	-149.35	1366.5	-184.32	-146.42	1215.2	-154.38	66.533	1402	-205.32	-338.51	1392.2	-269.07	-259.59	1357.2	-346.92	-66.306	931.44	-155.16	-263.05	928.82	-205.94	-90.733	966.42	-336.16	-160.86	970.64	-355.28	-3.8587	995.98	-202.95	-292.17	1004.7	-270.94	53.852	689.41	-180.75	46.994	732.06	-197.68	58.733	683.05	-214.46	114.54	619.95	-198.96	68.429	480.32	-178.94	NaN	NaN	NaN	-313.54	649.79	-273.78	-319.22	683.6	-254.61	-298.82	680.85	-313.45	-352.43	587.54	-274.18	-294.07	465.18	-228.42	NaN	NaN	NaN	118.07	319.38	-253.88	103.29	350.35	-203.03	105.64	362.77	-254.18	157.8	250.45	-205.53	137.96	87.801	-301.17	55.028	75.402	-266.79	-314.52	318.23	-269.35	-305.05	359.12	-239.56	-306.26	365.99	-290.85	-361.32	249.21	-269.16	-305.34	71.011	-293.05	-226.59	79.822	-254.37	86.265	58.474	-339.76	65.031	46.465	-271.33	139.39	58.213	-296.84	139.61	52.615	-170.85	179.28	53.096	-193.7	-250.75	62.089	-328.56	-232.11	43.423	-258.33	-306.88	45.785	-286.45	-320.64	45.616	-161.2	-362.66	33.057	-203.03
482	4.81	-140.72	1443.4	-303.18	-123.92	1188.2	-331.59	-150.46	1366.9	-184.11	-147.3	1215.5	-154.05	65.497	1402.7	-205.04	-339.82	1391.8	-268.72	-260.74	1356.9	-346.71	-67.073	931.65	-154.49	-263.53	928.92	-205.91	-90.619	966.89	-335.6	-160.78	971.07	-354.78	-4.3686	996.47	-201.93	-292.46	1004.8	-270.85	53.446	689.69	-180.11	46.614	732.27	-197.02	58.425	683.37	-213.99	114.28	620.08	-198.66	67.991	480.41	-179.27	NaN	NaN	NaN	-313.68	649.92	-274.24	-319.42	683.69	-254.99	-298.85	681.08	-313.8	-352.55	587.64	-274.84	-293.88	465.11	-229	NaN	NaN	NaN	117.77	319.43	-254.26	103	350.46	-203.43	105.31	362.84	-254.62	157.66	250.7	-205.92	137.9	87.855	-301.2	54.996	75.374	-266.87	-314.65	318.26	-269.76	-305.12	359.15	-239.99	-306.35	365.99	-291.31	-361.47	249.19	-269.47	-305.39	70.959	-293.12	-226.65	79.846	-254.47	86.252	58.461	-339.78	65.029	46.448	-271.39	139.39	58.253	-296.92	139.55	52.645	-170.91	179.23	53.121	-193.73	-250.77	62.079	-328.6	-232.13	43.462	-258.37	-306.9	45.755	-286.5	-320.68	45.626	-161.24	-362.7	33.023	-203.08
483	4.82	-141.79	1443.2	-303.41	-124.4	1188.1	-331.21	-151.38	1367.3	-184.01	-148.1	1216	-153.52	64.627	1403.3	-205	-340.94	1391.3	-268.43	-261.89	1356.7	-346.5	-67.694	931.79	-153.79	-263.95	929.01	-205.86	-90.477	967.29	-334.94	-160.57	971.26	-354.29	-4.838	996.89	-200.81	-292.64	1004.9	-270.84	53.011	689.78	-179.57	46.273	732.39	-196.32	58.206	683.63	-213.47	113.88	620.3	-197.92	67.571	480.48	-179.53	NaN	NaN	NaN	-313.75	650.01	-274.58	-319.41	683.81	-255.15	-298.78	681.2	-314.07	-352.6	587.74	-275.39	-294.07	465.16	-229.41	NaN	NaN	NaN	117.49	319.51	-254.56	102.74	350.53	-203.73	105.01	362.91	-254.96	157.48	251.03	-206.26	137.88	87.837	-301.26	54.959	75.379	-266.93	-314.73	318.32	-270.06	-305.08	359.1	-240.27	-306.41	366.05	-291.66	-361.52	249.19	-269.87	-305.28	70.958	-293.32	-226.67	79.912	-254.52	86.227	58.459	-339.82	64.996	46.437	-271.42	139.37	58.236	-296.95	139.5	52.643	-170.92	179.2	53.146	-193.73	-250.77	62.059	-328.65	-232.13	43.554	-258.4	-306.95	45.766	-286.57	-320.67	45.609	-161.29	-362.74	32.972	-203.14
484	4.83	-142.79	1442.9	-303.65	-124.81	1188.1	-330.96	-152.14	1367.6	-183.99	-148.78	1216.2	-153.12	63.859	1403.8	-205.12	-341.91	1391	-268.16	-262.95	1356.5	-346.23	-68.245	931.9	-153.12	-264.28	929.07	-205.76	-90.34	967.47	-334.18	-160.37	971.4	-353.87	-5.2786	997.28	-199.88	-292.8	1005	-270.87	52.682	689.81	-179.01	45.99	732.48	-195.53	57.985	683.7	-212.89	113.58	620.24	-197.27	67.2	480.5	-179.7	NaN	NaN	NaN	-313.72	650.07	-274.79	-319.5	683.84	-255.35	-298.7	681.32	-314.2	-352.57	587.77	-275.75	-294.15	465.18	-229.6	NaN	NaN	NaN	117.27	319.54	-254.74	102.52	350.64	-203.93	104.76	362.93	-255.14	157.36	250.97	-206.31	137.86	87.823	-301.21	54.919	75.36	-266.91	-314.73	318.29	-270.22	-305.2	359.14	-240.44	-306.38	366.04	-291.8	-361.52	249.22	-270.04	-305.35	70.942	-293.22	-226.68	79.928	-254.55	86.254	58.422	-339.81	64.956	46.41	-271.39	139.36	58.245	-296.94	139.48	52.626	-170.87	179.18	53.095	-193.71	-250.75	62.06	-328.65	-232.13	43.581	-258.38	-306.9	45.733	-286.59	-320.7	45.612	-161.3	-362.74	32.962	-203.14
485	4.84	-143.68	1442.6	-303.9	-125.21	1188	-330.78	-152.88	1367.8	-183.93	-149.56	1216.6	-152.32	63.271	1404.2	-205.3	-342.77	1390.7	-267.81	-263.8	1356.2	-346.06	-68.788	932.01	-152.5	-264.58	929.2	-205.49	-90.229	967.57	-333.4	-160.15	971.46	-353.58	-5.684	997.62	-199.02	-292.94	1004.9	-270.92	52.429	689.89	-178.4	45.739	732.51	-194.78	57.795	683.76	-212.34	113.32	620.42	-196.56	66.856	480.54	-179.75	NaN	NaN	NaN	-313.66	650	-274.85	-319.65	683.76	-255.52	-298.54	681.29	-314.23	-352.51	587.72	-275.9	-294.2	465.16	-229.56	NaN	NaN	NaN	117.11	319.55	-254.76	102.25	350.63	-204.04	104.57	362.96	-255.22	157.24	251.03	-206.25	137.86	87.787	-301.13	54.91	75.313	-266.91	-314.7	318.27	-270.21	-305.18	359.12	-240.41	-306.32	366.03	-291.78	-361.45	249.21	-270.14	-305.38	70.981	-293.22	-226.69	79.921	-254.43	86.254	58.442	-339.78	64.973	46.377	-271.36	139.35	58.248	-296.83	139.49	52.568	-170.77	179.21	53.018	-193.63	-250.7	62.049	-328.63	-232.14	43.54	-258.38	-306.98	45.811	-286.57	-320.75	45.612	-161.29	-362.79	32.965	-203.17
486	4.85	-144.35	1442.2	-304.2	-125.55	1187.8	-330.66	-153.47	1368	-183.92	-150.17	1216.8	-151.99	62.719	1404.5	-205.51	-343.53	1390.5	-267.4	-264.68	1356.1	-345.93	-69.182	932.12	-151.87	-264.73	929.04	-205.6	-90.04	967.58	-332.95	-159.94	971.4	-353.25	-5.981	997.79	-198.33	-293.09	1004.7	-270.91	52.194	689.75	-177.84	45.584	732.49	-194.11	57.671	683.81	-211.76	112.94	620.25	-196.03	66.555	480.5	-179.63	NaN	NaN	NaN	-313.53	649.91	-274.8	-319.62	683.68	-255.5	-298.31	681.16	-314.13	-352.4	587.65	-275.9	-294.13	465.12	-229.33	NaN	NaN	NaN	116.94	319.57	-254.73	102.06	350.66	-204.07	104.43	362.98	-255.21	157.04	251.04	-206.17	137.81	87.792	-301.02	54.888	75.291	-266.83	-314.57	318.25	-270.05	-305.12	359.09	-240.24	-306.2	366.02	-291.6	-361.34	249.22	-270.1	-305.28	70.994	-293.23	-226.6	79.85	-254.46	86.247	58.446	-339.72	64.985	46.355	-271.33	139.35	58.267	-296.77	139.55	52.514	-170.68	179.26	52.924	-193.57	-250.65	62.093	-328.59	-232.12	43.502	-258.32	-306.83	45.738	-286.58	-320.72	45.587	-161.31	-362.76	32.954	-203.2
487	4.86	-144.95	1441.9	-304.47	-125.84	1187.7	-330.64	-153.95	1368.1	-183.97	-150.54	1216.9	-152.07	62.236	1404.8	-205.7	-344.24	1390.1	-266.91	-265.51	1356	-345.8	-69.378	932.2	-151.27	-265	929.33	-204.9	-89.934	967.48	-332.42	-159.79	971.19	-352.82	-6.1676	997.92	-197.72	-293.13	1004.5	-270.89	51.989	689.59	-177.48	45.391	732.62	-193.18	57.57	683.83	-211.17	112.95	620.27	-195.5	66.31	480.45	-179.44	NaN	NaN	NaN	-313.35	649.79	-274.55	-319.52	683.57	-255.31	-298.07	681	-313.86	-352.26	587.54	-275.7	-294.02	465.04	-228.92	NaN	NaN	NaN	116.82	319.56	-254.64	101.85	350.63	-203.98	104.52	363.25	-255.21	156.96	251.07	-206.01	137.81	87.798	-300.94	54.874	75.255	-266.76	-314.46	318.26	-269.81	-304.95	359.04	-239.91	-306.06	366	-291.26	-361.23	249.23	-269.9	-305.21	71.028	-293.17	-226.59	79.784	-254.32	86.268	58.461	-339.66	64.978	46.318	-271.28	139.36	58.207	-296.72	139.56	52.473	-170.6	179.27	52.898	-193.52	-250.6	62.091	-328.52	-232.08	43.438	-258.3	-306.88	45.855	-286.52	-320.73	45.577	-161.28	-362.75	32.97	-203.19
